# xmcd CD database file
#
# Track frame offsets:
#	150
#	28300
#	40080
#	60559
#	74201
#	84790
#	107010
#	129674
#	146956
#	169184
#	190104
#	208643
#	225236
#
# Disc length: 3269 seconds
#
# Revision: 0
# Processed by: cddbd v1.5.2PL0 Copyright (c) Steve Scherf et al.
# Submitted via: CDex 1.70beta2
#
DISCID=b80cc30d
DTITLE=Marcella Carboni - Pop Harp
DYEAR=2012
DGENRE=Jazz
TTITLE0=Oblivion
TTITLE1=Eu preciso de vocé
TTITLE2=Sicilienne
TTITLE3=Rebuliço
TTITLE4=King King ha gli occhi lucidi
TTITLE5=Ciao Manu!
TTITLE6=Here, there and everywhere
TTITLE7=Cheeck ti cheeck
TTITLE8=Il bosco che chiamano Respiro
TTITLE9=Carinhoso
TTITLE10=UlGiuanMarcora
TTITLE11=Rivu isganiu
TTITLE12=Sister Moon
EXTD=YEAR: 2012
EXTT0=
EXTT1=
EXTT2=
EXTT3=
EXTT4=
EXTT5=
EXTT6=
EXTT7=
EXTT8=
EXTT9=
EXTT10=
EXTT11=
EXTT12=
PLAYORDER=
